# xmcd
# 
# Track frame offsets:
#     150
#     35446
#     70753
#     92132
#     107400
#     127610
#     142699
#     164255
#     180791
#     197594
#     213092
#     235845
#     255936
#     279224
# 
# Disc length: 3976
# 
# Revision: 0
# Processed by: cddbd v1.5.2PL0 Copyright (c) Steve Scherf et al.
# Submitted via: fre:ac v1.0.27
# 
DISCID=a00f860e
DTITLE=Terry Gillespie - Homeboy
DYEAR=2017
DGENRE=Blues
TTITLE0=New Mown Lawn
TTITLE1=Tijuana
TTITLE2=Monkey Hunger
TTITLE3=Little By Little
TTITLE4=Brother Of The Blues
TTITLE5=Another Black Night
TTITLE6=I'm A Man
TTITLE7=Businesman
TTITLE8=Junco Partner
TTITLE9=The Devil Likes To Win
TTITLE10=Killing Floor
TTITLE11=Pass The Peas
TTITLE12=New Orleans Wobble
TTITLE13=New Mown Lawn (radio edit)
EXTD=
EXTT0=
EXTT1=
EXTT2=
EXTT3=
EXTT4=
EXTT5=
EXTT6=
EXTT7=
EXTT8=
EXTT9=
EXTT10=
EXTT11=
EXTT12=
EXTT13=
PLAYORDER=
